<svg xmlns="http://www.w3.org/2000/svg" xmlns:xlink="http://www.w3.org/1999/xlink" width="53" height="77" viewBox="0 0 53 77">
    <defs>
        <path id="v22al0hsqa" d="M0.044 0.012L43.916 0.012 43.916 39.926 0.044 39.926z"/>
    </defs>
    <g fill="none" fill-rule="evenodd">
        <g>
            <g>
                <path fill="#C40019" d="M30.578 31.055l-1.001.122-1.025.192-1.046.262-1.067.333-1.085.404-1.104.477-1.12.55-1.133.623 9.415 5.454 1.134-.624 1.12-.55 1.103-.476 1.085-.404 1.067-.333 1.046-.262 1.024-.192 1.002-.123.977-.054.95.013.924.08.894.146.864.211.833.276.8.34.765.401-9.415-5.454-.765-.402-.8-.338-.833-.276-.864-.211-.895-.146-.923-.08-.95-.014-.977.055zm-9.726 3.66l-1.12.747-1.101.801-1.086.854-1.066.902-1.045.95-1.024.995-1 1.037-.977 1.077-.95 1.113-.922 1.15-.894 1.181-.864 1.212-.832 1.24-.8 1.265-.765 1.288-.671 1.2-.64 1.215-.607 1.23-.574 1.24-.54 1.251-.505 1.259-.468 1.265-.43 1.27-.393 1.272L1.226 63l-.312 1.271-.27 1.269-.229 1.263-.183 1.257-.14 1.248L0 70.546 9.415 76l.093-1.238.139-1.247.183-1.258.229-1.263.27-1.268.312-1.272.353-1.272.391-1.272.43-1.27.47-1.265.504-1.258.54-1.251.574-1.242.607-1.228.64-1.216.67-1.2.766-1.288.8-1.265.832-1.24.864-1.212.894-1.181.923-1.149.95-1.114.976-1.076 1-1.037 1.024-.995 1.045-.95 1.067-.902 1.085-.854 1.102-.801 1.12-.748 1.133-.69-9.415-5.454-1.134.69z" transform="translate(-574 -252) translate(574 252)"/>
                <path fill="#C2AC78" d="M27.264 0L26.7.033l-.578.073-.591.116-.605.158-.617.2-.627.244-.637.287-.647.33-.655.376-.656.416-.647.45-.638.482-.627.514-.616.544-.605.572-.592.599-.579.624-.565.649-.549.67-.533.693-.517.712-.5.73-.48.746-.463.763-.442.776-.421.788-.401.8-.378.81-.356.817-.331.823-.307.83-.282.833-.255.834-.228.836-.2.836-.172.833-.143.83-.112.825-.081.819-.05.81-.016.802.017.78.049.752.08.72.113.69.143.657.171.626.2.593.229.561.255.527.282.494.307.458.331.424.356.39.378.352.4.316.422.28 9.25 5.582-.422-.28-.4-.316-.379-.353-.355-.389-.331-.424-.307-.458-.282-.493-.255-.527-.228-.56-.2-.595-.173-.625-.143-.659-.111-.69-.082-.719-.048-.751-.017-.781.017-.801.048-.811.082-.819.111-.825.143-.83.172-.833.2-.835.229-.836.255-.835.282-.833.307-.83.33-.823.356-.817.378-.81.401-.8.422-.788.442-.776.462-.762.482-.747.498-.73.517-.712.534-.693.549-.67.565-.648.578-.625.593-.6.604-.57.616-.545.628-.514.638-.482.647-.45.655-.415.655-.376.648-.331.636-.287.628-.243.616-.2.605-.159.591-.115.58-.074.564-.033.549.008.534.048.517.088.5.128.48.166.463.204.443.242L30.75.884 30.308.64l-.463-.204-.481-.166-.5-.127-.517-.088-.534-.048L27.264 0zM21.74 34.418L30.99 40l.011-.006-9.25-5.583-.01.007z" transform="translate(-574 -252) translate(574 252)"/>
                <g>
                    <g transform="translate(-574 -252) translate(574 252) translate(9 5) translate(0 31.031)">
                        <mask id="3vbxfmxkzb" fill="#fff">
                            <use xlink:href="#v22al0hsqa"/>
                        </mask>
                        <path fill="#E61E28" d="M37.527 1.495C33.551-.835 28.051-.498 21.981 3.06l-.01.006c-6.068 3.56-11.562 9.666-15.539 16.655C2.784 26.135.415 33.296.044 39.926L43.916 14.21c-.368-6.197-2.74-10.578-6.389-12.716" mask="url(#3vbxfmxkzb)"/>
                    </g>
                    <path fill="#FFE0A6" d="M21.972 32.275l.01-.006c3.567-2.093 6.796-5.685 9.134-9.793l.003.001c2.338-4.114 3.784-8.751 3.784-12.941 0-4.187-1.448-7.13-3.787-8.5-2.34-1.372-5.575-1.172-9.144.92-3.572 2.093-6.807 5.685-9.145 9.8-2.34 4.116-3.79 8.754-3.79 12.941 0 4.184 1.45 7.127 3.79 8.498 2.338 1.37 5.573 1.174 9.145-.92" transform="translate(-574 -252) translate(574 252) translate(9 5)"/>
                </g>
            </g>
        </g>
    </g>
</svg>