<svg xmlns="http://www.w3.org/2000/svg" width="16" height="15" viewBox="0 0 16 15">
    <path fill="#0A294C" fill-rule="nonzero" d="M7.965 0c-4.136 0-7.5 3.364-7.5 7.5s3.364 7.5 7.5 7.5c4.135 0 7.5-3.364 7.5-7.5S12.1 0 7.965 0zm1.661 11.428c-.413.162-1.845.846-2.67.119a1.047 1.047 0 0 1-.369-.824c0-.624.205-1.167.575-2.473.065-.247.144-.567.144-.82 0-.439-.166-.555-.617-.555-.22 0-.464.078-.684.16l.122-.499c.492-.2 1.109-.443 1.638-.443.793 0 1.377.395 1.377 1.148 0 .216-.038.597-.117.859L8.57 9.714c-.094.326-.265 1.045 0 1.258.26.211.875.1 1.179-.044l-.122.5zM8.872 5a.938.938 0 1 1 .001-1.876.938.938 0 0 1 0 1.876z"/>
</svg>