<svg width="10" height="12" viewBox="0 0 10 12" xmlns="http://www.w3.org/2000/svg">
    <g fill="#0A294C" fill-rule="evenodd">
        <path d="M5.3 10.378c1.078-.356 1.957-1.029 2.637-2.018a5.737 5.737 0 0 0 1.02-3.326V2.278L5.3.9 1.644 2.278v2.756c0 1.229.34 2.337 1.02 3.326.68.99 1.558 1.662 2.636 2.018zm0 .872c-1.313-.328-2.39-1.09-3.234-2.285C1.222 7.77.8 6.459.8 5.035V1.686L5.3 0l4.5 1.688v3.346c0 1.425-.422 2.736-1.266 3.93-.843 1.196-1.921 1.958-3.234 2.286z"/>
        <path d="M3.821 7.593a.477.477 0 0 1-.49-.49V4.717a.477.477 0 0 1 .49-.49h.262v-.653c0-.36.122-.67.368-.932.245-.261.541-.392.89-.392s.645.13.89.392c.246.262.368.572.368.932v.653h.278a.477.477 0 0 1 .49.49v2.386a.477.477 0 0 1-.49.49H3.821zm2.885-2.812v2.25H3.894v-2.25h2.812zM5.341 2.806c.207 0 .376.076.507.228.13.153.196.333.196.54v.653H4.638v-.653c0-.207.066-.387.197-.54.13-.152.3-.228.506-.228z"/>
    </g>
</svg>