<svg xmlns="http://www.w3.org/2000/svg" width="15" height="15" viewBox="0 0 17 17">
    <path fill="none" fill-rule="evenodd" stroke="#0A294C" stroke-linecap="round" stroke-linejoin="round" stroke-width="1.4" d="M2.73 10.485l-1.234-.397A.714.714 0 0 1 1 9.408V7.592c0-.31.2-.585.496-.68l1.235-.397a.714.714 0 0 0 .353-1.107l-.527-.706a.714.714 0 0 1 .067-.933l1.145-1.145a.714.714 0 0 1 .933-.067l.706.527a.714.714 0 0 0 1.107-.353l.397-1.235A.714.714 0 0 1 7.592 1h1.816c.31 0 .585.2.68.496l.397 1.235a.714.714 0 0 0 1.107.353l.706-.527a.714.714 0 0 1 .933.067l1.145 1.145c.251.252.28.649.067.933l-.527.706a.714.714 0 0 0 .353 1.107l1.235.397c.296.095.496.37.496.68v1.816c0 .31-.2.585-.496.68l-1.235.397a.714.714 0 0 0-.353 1.107l.527.706a.714.714 0 0 1-.067.933l-1.145 1.145a.714.714 0 0 1-.933.067l-.706-.527a.714.714 0 0 0-1.107.353l-.397 1.235a.714.714 0 0 1-.68.496H7.592c-.31 0-.585-.2-.68-.496l-.397-1.235a.714.714 0 0 0-1.107-.353l-.706.527a.714.714 0 0 1-.933-.067l-1.145-1.145a.714.714 0 0 1-.067-.933l.527-.706a.714.714 0 0 0-.353-1.107zm7.285-3.5a2.143 2.143 0 1 0-3.03 3.03 2.143 2.143 0 0 0 3.03-3.03z"/>
</svg>